<svg width="24" height="25" viewBox="0 0 24 25" fill="none" xmlns="http://www.w3.org/2000/svg">
<g clip-path="url(#clip0_10112_47)">
<path d="M16.5 0.802734H7.5C3.3585 0.802734 0 4.16123 0 8.30273V17.3027C0 21.4442 3.3585 24.8027 7.5 24.8027H16.5C20.6415 24.8027 24 21.4442 24 17.3027V8.30273C24 4.16123 20.6415 0.802734 16.5 0.802734ZM21.75 17.3027C21.75 20.1977 19.395 22.5527 16.5 22.5527H7.5C4.605 22.5527 2.25 20.1977 2.25 17.3027V8.30273C2.25 5.40773 4.605 3.05273 7.5 3.05273H16.5C19.395 3.05273 21.75 5.40773 21.75 8.30273V17.3027Z" fill="white"/>
<path d="M12 6.80273C8.6865 6.80273 6 9.48923 6 12.8027C6 16.1162 8.6865 18.8027 12 18.8027C15.3135 18.8027 18 16.1162 18 12.8027C18 9.48923 15.3135 6.80273 12 6.80273ZM12 16.5527C9.933 16.5527 8.25 14.8697 8.25 12.8027C8.25 10.7342 9.933 9.05273 12 9.05273C14.067 9.05273 15.75 10.7342 15.75 12.8027C15.75 14.8697 14.067 16.5527 12 16.5527Z" fill="white"/>
<path d="M18.4479 7.15271C18.8895 7.15271 19.2474 6.79476 19.2474 6.35321C19.2474 5.91166 18.8895 5.55371 18.4479 5.55371C18.0064 5.55371 17.6484 5.91166 17.6484 6.35321C17.6484 6.79476 18.0064 7.15271 18.4479 7.15271Z" fill="white"/>
</g>
<defs>
<clipPath id="clip0_10112_47">
<rect width="24" height="24" fill="white" transform="translate(0 0.802734)"/>
</clipPath>
</defs>
</svg>
