<svg width="24" height="25" viewBox="0 0 24 25" fill="none" xmlns="http://www.w3.org/2000/svg">
<g clip-path="url(#clip0_10112_31)">
<path fill-rule="evenodd" clip-rule="evenodd" d="M21.3625 15.5604C21.3625 15.5604 23.3029 17.4768 23.7829 18.3636C23.7922 18.3764 23.7995 18.3905 23.8045 18.4056C24.0001 18.7332 24.0481 18.99 23.9521 19.1796C23.7901 19.4928 23.2417 19.65 23.0557 19.6632H19.6261C19.3873 19.6632 18.8905 19.6008 18.2857 19.1832C17.8237 18.8604 17.3641 18.3288 16.9189 17.8092C16.2541 17.0376 15.6793 16.368 15.0973 16.368C15.0238 16.3678 14.9508 16.38 14.8813 16.404C14.4409 16.5432 13.8817 17.1708 13.8817 18.8424C13.8817 19.3656 13.4689 19.6632 13.1797 19.6632H11.6089C11.0737 19.6632 8.28731 19.476 5.81651 16.8708C2.78891 13.6812 0.0697081 7.28278 0.0433081 7.22638C-0.125892 6.81238 0.229308 6.58678 0.613308 6.58678H4.07651C4.54091 6.58678 4.69211 6.86758 4.79771 7.11958C4.92011 7.40878 5.37371 8.56558 6.11771 9.86518C7.32251 11.9796 8.06291 12.84 8.65451 12.84C8.76566 12.8403 8.87492 12.8113 8.97131 12.756C9.74411 12.3312 9.60011 9.57118 9.56411 9.00238C9.56411 8.89198 9.56291 7.76998 9.16691 7.22758C8.88371 6.83878 8.40131 6.68758 8.10971 6.63238C8.18771 6.51958 8.35331 6.34678 8.56571 6.24478C9.09491 5.98078 10.0513 5.94238 11.0005 5.94238H11.5273C12.5569 5.95678 12.8233 6.02278 13.1977 6.11758C13.9513 6.29758 13.9657 6.78598 13.8997 8.44918C13.8805 8.92438 13.8601 9.45958 13.8601 10.0896C13.8601 10.224 13.8541 10.374 13.8541 10.5264C13.8313 11.3796 13.8013 12.3408 14.4037 12.7356C14.4818 12.7843 14.5721 12.81 14.6641 12.81C14.8729 12.81 15.4981 12.81 17.1937 9.89998C17.9377 8.61478 18.5137 7.09918 18.5533 6.98518C18.5869 6.92158 18.6877 6.74278 18.8101 6.67078C18.8972 6.62446 18.9947 6.60132 19.0933 6.60358H23.1673C23.6113 6.60358 23.9125 6.67078 23.9713 6.83878C24.0697 7.11118 23.9521 7.94278 22.0921 10.458C21.7789 10.8768 21.5041 11.2392 21.2629 11.556C19.5769 13.7688 19.5769 13.8804 21.3625 15.5604Z" fill="white"/>
</g>
<defs>
<clipPath id="clip0_10112_31">
<rect y="0.802734" width="24" height="24" fill="white"/>
</clipPath>
</defs>
</svg>
