<svg width="24" height="25" viewBox="0 0 24 25" fill="none" xmlns="http://www.w3.org/2000/svg">
<path d="M22.0576 7.74812C21.9381 7.30415 21.7041 6.89936 21.3789 6.57425C21.0538 6.24914 20.649 6.01513 20.2051 5.89562C18.5701 5.45313 12.0001 5.45312 12.0001 5.45312C12.0001 5.45312 5.43008 5.45313 3.79508 5.89562C3.35111 6.01513 2.94631 6.24914 2.6212 6.57425C2.29609 6.89936 2.06208 7.30415 1.94258 7.74812C1.63729 9.41557 1.48914 11.108 1.50008 12.8031C1.48914 14.4983 1.63729 16.1907 1.94258 17.8581C2.06208 18.3021 2.29609 18.7069 2.6212 19.032C2.94631 19.3571 3.35111 19.5911 3.79508 19.7106C5.43008 20.1531 12.0001 20.1531 12.0001 20.1531C12.0001 20.1531 18.5701 20.1531 20.2051 19.7106C20.649 19.5911 21.0538 19.3571 21.3789 19.032C21.7041 18.7069 21.9381 18.3021 22.0576 17.8581C22.3629 16.1907 22.511 14.4983 22.5001 12.8031C22.511 11.108 22.3629 9.41557 22.0576 7.74812ZM9.90008 15.9531V9.65312L15.3526 12.8031L9.90008 15.9531Z" fill="white"/>
</svg>
