<svg width="21" height="26" viewBox="0 0 21 26" fill="none" xmlns="http://www.w3.org/2000/svg">
<path d="M18.5583 0H2.44167C1.09896 0 0 0.789657 0 1.75611V24.2431C0 25.2096 1.09896 26 2.44167 26H18.5583C19.901 26 21 25.2111 21 24.2439V1.75611C21 0.789657 19.901 0 18.5583 0ZM7.92199 1.26583H13.078C13.2412 1.26583 13.3734 1.36091 13.3734 1.47903C13.3734 1.5964 13.2412 1.69149 13.078 1.69149H7.92199C7.7588 1.69149 7.6266 1.5964 7.6266 1.47903C7.6266 1.36091 7.7588 1.26583 7.92199 1.26583ZM10.5 25.1219C9.82555 25.1219 9.27917 24.729 9.27917 24.2431C9.27917 23.7573 9.82555 23.3651 10.5 23.3651C11.1745 23.3651 11.7208 23.7573 11.7208 24.2431C11.7208 24.729 11.1745 25.1219 10.5 25.1219ZM19.301 22.75H1.69905V2.78497H19.301V22.75Z" fill="white"/>
</svg>
